<svg width="327" height="44" viewBox="0 0 327 44" fill="none" xmlns="http://www.w3.org/2000/svg">
<rect y="0.5" width="327" height="43" rx="10" fill="#E7DFDA"/>
<path d="M141.768 28.5V15.4091H143.353V27.0938H149.438V28.5H141.768ZM155.677 28.7045C154.791 28.7045 154.013 28.4936 153.344 28.0717C152.679 27.6499 152.159 27.0597 151.784 26.3011C151.413 25.5426 151.228 24.6562 151.228 23.642C151.228 22.6193 151.413 21.7266 151.784 20.9638C152.159 20.201 152.679 19.6087 153.344 19.1868C154.013 18.7649 154.791 18.554 155.677 18.554C156.563 18.554 157.339 18.7649 158.004 19.1868C158.673 19.6087 159.193 20.201 159.563 20.9638C159.938 21.7266 160.126 22.6193 160.126 23.642C160.126 24.6562 159.938 25.5426 159.563 26.3011C159.193 27.0597 158.673 27.6499 158.004 28.0717C157.339 28.4936 156.563 28.7045 155.677 28.7045ZM155.677 27.3494C156.35 27.3494 156.904 27.1768 157.339 26.8317C157.774 26.4865 158.095 26.0327 158.304 25.4702C158.513 24.9077 158.617 24.2983 158.617 23.642C158.617 22.9858 158.513 22.3743 158.304 21.8075C158.095 21.2408 157.774 20.7827 157.339 20.4332C156.904 20.0838 156.35 19.9091 155.677 19.9091C155.004 19.9091 154.45 20.0838 154.015 20.4332C153.58 20.7827 153.259 21.2408 153.05 21.8075C152.841 22.3743 152.737 22.9858 152.737 23.642C152.737 24.2983 152.841 24.9077 153.05 25.4702C153.259 26.0327 153.58 26.4865 154.015 26.8317C154.45 27.1768 155.004 27.3494 155.677 27.3494ZM166.392 32.3864C165.663 32.3864 165.036 32.2926 164.512 32.1051C163.988 31.9219 163.551 31.679 163.202 31.3764C162.857 31.0781 162.582 30.7585 162.377 30.4176L163.579 29.5739C163.715 29.7528 163.888 29.9574 164.097 30.1875C164.306 30.4219 164.591 30.6243 164.953 30.7947C165.32 30.9695 165.799 31.0568 166.392 31.0568C167.184 31.0568 167.838 30.8651 168.354 30.4815C168.87 30.098 169.127 29.4972 169.127 28.679V26.6847H169C168.889 26.8636 168.731 27.0852 168.527 27.3494C168.326 27.6094 168.036 27.8416 167.657 28.0462C167.282 28.2464 166.775 28.3466 166.136 28.3466C165.343 28.3466 164.632 28.1591 164.001 27.7841C163.375 27.4091 162.878 26.8636 162.512 26.1477C162.149 25.4318 161.968 24.5625 161.968 23.5398C161.968 22.5341 162.145 21.6584 162.499 20.9126C162.853 20.1626 163.345 19.5831 163.975 19.174C164.606 18.7607 165.335 18.554 166.161 18.554C166.801 18.554 167.308 18.6605 167.683 18.8736C168.062 19.0824 168.352 19.321 168.552 19.5895C168.757 19.8537 168.914 20.071 169.025 20.2415H169.179V18.6818H170.636V28.7812C170.636 29.625 170.444 30.3111 170.061 30.8395C169.681 31.3722 169.17 31.7621 168.527 32.0092C167.887 32.2607 167.176 32.3864 166.392 32.3864ZM166.34 26.9915C166.946 26.9915 167.457 26.853 167.875 26.576C168.292 26.299 168.61 25.9006 168.827 25.3807C169.044 24.8608 169.153 24.2386 169.153 23.5142C169.153 22.8068 169.046 22.1825 168.833 21.6413C168.62 21.1001 168.305 20.6761 167.887 20.3693C167.47 20.0625 166.954 19.9091 166.34 19.9091C165.701 19.9091 165.169 20.071 164.742 20.3949C164.321 20.7187 164.003 21.1534 163.79 21.6989C163.581 22.2443 163.477 22.8494 163.477 23.5142C163.477 24.196 163.583 24.799 163.796 25.3232C164.014 25.843 164.333 26.2521 164.755 26.5504C165.181 26.8445 165.71 26.9915 166.34 26.9915ZM173.397 28.5V18.6818H174.906V28.5H173.397ZM174.164 17.0455C173.87 17.0455 173.617 16.9453 173.404 16.745C173.195 16.5447 173.09 16.304 173.09 16.0227C173.09 15.7415 173.195 15.5007 173.404 15.3004C173.617 15.1001 173.87 15 174.164 15C174.458 15 174.71 15.1001 174.919 15.3004C175.132 15.5007 175.238 15.7415 175.238 16.0227C175.238 16.304 175.132 16.5447 174.919 16.745C174.71 16.9453 174.458 17.0455 174.164 17.0455ZM179.177 22.5938V28.5H177.669V18.6818H179.126V20.2159H179.254C179.484 19.7173 179.834 19.3168 180.302 19.0142C180.771 18.7074 181.376 18.554 182.118 18.554C182.782 18.554 183.364 18.6903 183.863 18.9631C184.361 19.2315 184.749 19.6406 185.026 20.1903C185.303 20.7358 185.441 21.4261 185.441 22.2614V28.5H183.933V22.3636C183.933 21.5923 183.733 20.9915 183.332 20.5611C182.932 20.1264 182.382 19.9091 181.683 19.9091C181.201 19.9091 180.771 20.0135 180.392 20.2223C180.017 20.4311 179.721 20.7358 179.503 21.1364C179.286 21.5369 179.177 22.0227 179.177 22.5938Z" fill="#0F0C0A"/>
</svg>
