<svg width="54" height="51" viewBox="0 0 54 51" fill="none" xmlns="http://www.w3.org/2000/svg">
<path opacity="0.4" d="M26.9201 0C22.8555 0 19.5511 3.3044 19.5511 7.36897C19.5511 11.356 22.6694 14.5828 26.734 14.7224C26.8581 14.7069 26.9822 14.7069 27.0753 14.7224H27.1528H27.1838C31.1553 14.5828 34.2736 11.356 34.2891 7.36897C34.2891 3.3044 30.9847 0 26.9201 0Z" fill="#292D32"/>
<path d="M34.8024 18.8489C30.4741 15.9634 23.4155 15.9634 19.0562 18.8489C17.086 20.1676 16 21.9516 16 23.8598C16 25.768 17.086 27.5365 19.0407 28.8397C21.2126 30.298 24.067 31.0271 26.9215 31.0271C29.776 31.0271 32.6305 30.298 34.8024 28.8397C36.7572 27.521 37.8431 25.7525 37.8431 23.8288C37.8276 21.9206 36.7572 20.152 34.8024 18.8489Z" fill="#292D32"/>
<path d="M12.4112 50V42.7273H14.8685C15.4391 42.7273 15.9055 42.8303 16.2677 43.0362C16.6323 43.2398 16.9022 43.5156 17.0773 43.8636C17.2525 44.2116 17.3401 44.5999 17.3401 45.0284C17.3401 45.4569 17.2525 45.8464 17.0773 46.1967C16.9045 46.5471 16.637 46.8265 16.2748 47.0348C15.9126 47.2408 15.4486 47.3438 14.8827 47.3438H13.1214V46.5625H14.8543C15.245 46.5625 15.5586 46.495 15.7954 46.3601C16.0321 46.2251 16.2038 46.0429 16.3103 45.8132C16.4192 45.5812 16.4737 45.3196 16.4737 45.0284C16.4737 44.7372 16.4192 44.4768 16.3103 44.2472C16.2038 44.0175 16.0309 43.8376 15.7918 43.7074C15.5527 43.5748 15.2355 43.5085 14.8401 43.5085H13.2918V50H12.4112ZM18.7952 50V44.5455H19.6048V45.3693H19.6616C19.7611 45.0994 19.941 44.8804 20.2014 44.7124C20.4618 44.5443 20.7554 44.4602 21.0821 44.4602C21.1437 44.4602 21.2206 44.4614 21.3129 44.4638C21.4053 44.4661 21.4751 44.4697 21.5224 44.4744V45.3267C21.494 45.3196 21.4289 45.3089 21.3271 45.2947C21.2277 45.2782 21.1223 45.2699 21.0111 45.2699C20.7459 45.2699 20.5092 45.3255 20.3009 45.4368C20.0949 45.5457 19.9315 45.6972 19.8108 45.8913C19.6924 46.0831 19.6332 46.3021 19.6332 46.5483V50H18.7952ZM24.7158 50.1136C24.2233 50.1136 23.7913 49.9964 23.4196 49.7621C23.0503 49.5277 22.7615 49.1998 22.5531 48.7784C22.3472 48.357 22.2442 47.8646 22.2442 47.3011C22.2442 46.733 22.3472 46.237 22.5531 45.8132C22.7615 45.3894 23.0503 45.0604 23.4196 44.826C23.7913 44.5916 24.2233 44.4744 24.7158 44.4744C25.2082 44.4744 25.6391 44.5916 26.0084 44.826C26.3801 45.0604 26.6689 45.3894 26.8749 45.8132C27.0832 46.237 27.1874 46.733 27.1874 47.3011C27.1874 47.8646 27.0832 48.357 26.8749 48.7784C26.6689 49.1998 26.3801 49.5277 26.0084 49.7621C25.6391 49.9964 25.2082 50.1136 24.7158 50.1136ZM24.7158 49.3608C25.0898 49.3608 25.3976 49.2649 25.6391 49.0732C25.8805 48.8814 26.0593 48.6293 26.1753 48.3168C26.2913 48.0043 26.3493 47.6657 26.3493 47.3011C26.3493 46.9366 26.2913 46.5968 26.1753 46.282C26.0593 45.9671 25.8805 45.7126 25.6391 45.5185C25.3976 45.3243 25.0898 45.2273 24.7158 45.2273C24.3417 45.2273 24.0339 45.3243 23.7925 45.5185C23.551 45.7126 23.3723 45.9671 23.2563 46.282C23.1402 46.5968 23.0822 46.9366 23.0822 47.3011C23.0822 47.6657 23.1402 48.0043 23.2563 48.3168C23.3723 48.6293 23.551 48.8814 23.7925 49.0732C24.0339 49.2649 24.3417 49.3608 24.7158 49.3608ZM31.0456 44.5455V45.2557H28.1053V44.5455H31.0456ZM28.986 50V43.7926C28.986 43.4801 29.0594 43.2197 29.2061 43.0114C29.3529 42.803 29.5435 42.6468 29.7779 42.5426C30.0123 42.4384 30.2596 42.3864 30.5201 42.3864C30.726 42.3864 30.8941 42.4029 31.0243 42.4361C31.1545 42.4692 31.2516 42.5 31.3155 42.5284L31.074 43.2528C31.0314 43.2386 30.9722 43.2209 30.8965 43.1996C30.8231 43.1783 30.726 43.1676 30.6053 43.1676C30.3283 43.1676 30.1283 43.2375 30.0051 43.3771C29.8844 43.5168 29.824 43.7216 29.824 43.9915V50H28.986ZM32.3702 50V44.5455H33.2082V50H32.3702ZM32.7963 43.6364C32.633 43.6364 32.4921 43.5807 32.3737 43.4695C32.2577 43.3582 32.1997 43.2244 32.1997 43.0682C32.1997 42.9119 32.2577 42.7782 32.3737 42.6669C32.4921 42.5556 32.633 42.5 32.7963 42.5C32.9597 42.5 33.0993 42.5556 33.2153 42.6669C33.3337 42.7782 33.3929 42.9119 33.3929 43.0682C33.3929 43.2244 33.3337 43.3582 33.2153 43.4695C33.0993 43.5807 32.9597 43.6364 32.7963 43.6364ZM35.7313 42.7273V50H34.8932V42.7273H35.7313ZM39.7032 50.1136C39.1776 50.1136 38.7243 49.9976 38.3431 49.7656C37.9643 49.5312 37.6719 49.2045 37.466 48.7855C37.2624 48.3641 37.1606 47.8741 37.1606 47.3153C37.1606 46.7566 37.2624 46.2642 37.466 45.8381C37.6719 45.4096 37.9584 45.0758 38.3254 44.8366C38.6947 44.5952 39.1255 44.4744 39.618 44.4744C39.9021 44.4744 40.1826 44.5218 40.4596 44.6165C40.7366 44.7112 40.9887 44.8651 41.216 45.0781C41.4433 45.2888 41.6244 45.5682 41.7593 45.9162C41.8942 46.2642 41.9617 46.6927 41.9617 47.2017V47.5568H37.7572V46.8324H41.1094C41.1094 46.5246 41.0479 46.25 40.9248 46.0085C40.804 45.767 40.6312 45.5765 40.4063 45.4368C40.1838 45.2971 39.921 45.2273 39.618 45.2273C39.2842 45.2273 38.9953 45.3101 38.7515 45.4759C38.51 45.6392 38.3242 45.8523 38.194 46.1151C38.0638 46.3778 37.9987 46.6596 37.9987 46.9602V47.4432C37.9987 47.8551 38.0697 48.2043 38.2117 48.4908C38.3561 48.7749 38.5562 48.9915 38.8119 49.1406C39.0675 49.2874 39.3647 49.3608 39.7032 49.3608C39.9234 49.3608 40.1222 49.33 40.2998 49.2685C40.4797 49.2045 40.6348 49.1098 40.765 48.9844C40.8952 48.8565 40.9958 48.6979 41.0668 48.5085L41.8765 48.7358C41.7913 49.0104 41.648 49.2519 41.4468 49.4602C41.2456 49.6662 40.997 49.8272 40.7011 49.9432C40.4051 50.0568 40.0725 50.1136 39.7032 50.1136Z" fill="#383838"/>
</svg>
