<svg width="54" height="52" viewBox="0 0 54 52" fill="none" xmlns="http://www.w3.org/2000/svg">
<path opacity="0.4" d="M26.5735 29.1469C34.6221 29.1469 41.1469 22.6221 41.1469 14.5735C41.1469 6.52475 34.6221 0 26.5735 0C18.5247 0 12 6.52475 12 14.5735C12 22.6221 18.5247 29.1469 26.5735 29.1469Z" fill="#FE9D64"/>
<path d="M41.608 30.6811C41.3319 30.6811 41.0557 30.5737 40.8563 30.3743L38.003 27.5209C37.5888 27.1067 37.5888 26.4318 38.003 26.0022C38.4172 25.588 39.0921 25.588 39.5217 26.0022L42.375 28.8556C42.7892 29.2698 42.7892 29.9447 42.375 30.3743C42.1602 30.5737 41.8841 30.6811 41.608 30.6811Z" fill="#FE9D64"/>
<path d="M9.83791 49V41.7273H14.2271V42.5085H10.7186V44.9659H13.9998V45.7472H10.7186V48.2188H14.2839V49H9.83791ZM16.4758 43.5455L17.7827 45.7756L19.0895 43.5455H20.0554L18.294 46.2727L20.0554 49H19.0895L17.7827 46.8835L16.4758 49H15.5099L17.2429 46.2727L15.5099 43.5455H16.4758ZM21.4012 51.0455V43.5455H22.2109V44.4119H22.3103C22.3719 44.3172 22.4571 44.1965 22.566 44.0497C22.6773 43.9006 22.8359 43.768 23.0418 43.652C23.2502 43.5336 23.5319 43.4744 23.887 43.4744C24.3463 43.4744 24.7511 43.5893 25.1015 43.8189C25.4519 44.0485 25.7253 44.3741 25.9218 44.7955C26.1183 45.2169 26.2166 45.714 26.2166 46.2869C26.2166 46.8646 26.1183 47.3653 25.9218 47.7891C25.7253 48.2105 25.4531 48.5372 25.1051 48.7692C24.757 48.9988 24.3558 49.1136 23.9012 49.1136C23.5508 49.1136 23.2703 49.0556 23.0596 48.9396C22.8489 48.8213 22.6867 48.6875 22.5731 48.5384C22.4595 48.3868 22.3719 48.2614 22.3103 48.1619H22.2393V51.0455H21.4012ZM22.2251 46.2727C22.2251 46.6847 22.2855 47.0481 22.4062 47.3629C22.5269 47.6754 22.7033 47.9205 22.9353 48.098C23.1673 48.2732 23.4514 48.3608 23.7876 48.3608C24.138 48.3608 24.4303 48.2685 24.6647 48.0838C24.9015 47.8968 25.079 47.6458 25.1974 47.331C25.3181 47.0137 25.3785 46.661 25.3785 46.2727C25.3785 45.8892 25.3193 45.5436 25.2009 45.2358C25.0849 44.9257 24.9086 44.6806 24.6718 44.5007C24.4374 44.3184 24.1427 44.2273 23.7876 44.2273C23.4467 44.2273 23.1602 44.3137 22.9282 44.4865C22.6962 44.657 22.521 44.8961 22.4026 45.2038C22.2843 45.5092 22.2251 45.8655 22.2251 46.2727ZM28.483 41.7273V49H27.645V41.7273H28.483ZM32.3839 49.1136C31.8915 49.1136 31.4595 48.9964 31.0878 48.7621C30.7184 48.5277 30.4296 48.1998 30.2213 47.7784C30.0153 47.357 29.9123 46.8646 29.9123 46.3011C29.9123 45.733 30.0153 45.237 30.2213 44.8132C30.4296 44.3894 30.7184 44.0604 31.0878 43.826C31.4595 43.5916 31.8915 43.4744 32.3839 43.4744C32.8764 43.4744 33.3072 43.5916 33.6765 43.826C34.0482 44.0604 34.3371 44.3894 34.543 44.8132C34.7514 45.237 34.8555 45.733 34.8555 46.3011C34.8555 46.8646 34.7514 47.357 34.543 47.7784C34.3371 48.1998 34.0482 48.5277 33.6765 48.7621C33.3072 48.9964 32.8764 49.1136 32.3839 49.1136ZM32.3839 48.3608C32.758 48.3608 33.0657 48.2649 33.3072 48.0732C33.5487 47.8814 33.7274 47.6293 33.8434 47.3168C33.9595 47.0043 34.0175 46.6657 34.0175 46.3011C34.0175 45.9366 33.9595 45.5968 33.8434 45.282C33.7274 44.9671 33.5487 44.7126 33.3072 44.5185C33.0657 44.3243 32.758 44.2273 32.3839 44.2273C32.0099 44.2273 31.7021 44.3243 31.4606 44.5185C31.2192 44.7126 31.0404 44.9671 30.9244 45.282C30.8084 45.5968 30.7504 45.9366 30.7504 46.3011C30.7504 46.6657 30.8084 47.0043 30.9244 47.3168C31.0404 47.6293 31.2192 47.8814 31.4606 48.0732C31.7021 48.2649 32.0099 48.3608 32.3839 48.3608ZM36.2848 49V43.5455H37.0945V44.3693H37.1513C37.2507 44.0994 37.4307 43.8804 37.6911 43.7124C37.9515 43.5443 38.245 43.4602 38.5718 43.4602C38.6333 43.4602 38.7102 43.4614 38.8026 43.4638C38.8949 43.4661 38.9647 43.4697 39.0121 43.4744V44.3267C38.9837 44.3196 38.9186 44.3089 38.8168 44.2947C38.7173 44.2782 38.612 44.2699 38.5007 44.2699C38.2356 44.2699 37.9988 44.3255 37.7905 44.4368C37.5845 44.5457 37.4212 44.6972 37.3004 44.8913C37.1821 45.0831 37.1229 45.3021 37.1229 45.5483V49H36.2848ZM42.2764 49.1136C41.7509 49.1136 41.2975 48.9976 40.9163 48.7656C40.5376 48.5312 40.2452 48.2045 40.0392 47.7855C39.8356 47.3641 39.7338 46.8741 39.7338 46.3153C39.7338 45.7566 39.8356 45.2642 40.0392 44.8381C40.2452 44.4096 40.5316 44.0758 40.8986 43.8366C41.2679 43.5952 41.6988 43.4744 42.1912 43.4744C42.4753 43.4744 42.7558 43.5218 43.0328 43.6165C43.3098 43.7112 43.5619 43.8651 43.7892 44.0781C44.0165 44.2888 44.1976 44.5682 44.3325 44.9162C44.4675 45.2642 44.535 45.6927 44.535 46.2017V46.5568H40.3304V45.8324H43.6827C43.6827 45.5246 43.6211 45.25 43.498 45.0085C43.3773 44.767 43.2045 44.5765 42.9796 44.4368C42.757 44.2971 42.4942 44.2273 42.1912 44.2273C41.8574 44.2273 41.5686 44.3101 41.3247 44.4759C41.0833 44.6392 40.8974 44.8523 40.7672 45.1151C40.637 45.3778 40.5719 45.6596 40.5719 45.9602V46.4432C40.5719 46.8551 40.6429 47.2043 40.785 47.4908C40.9294 47.7749 41.1294 47.9915 41.3851 48.1406C41.6408 48.2874 41.9379 48.3608 42.2764 48.3608C42.4966 48.3608 42.6955 48.33 42.873 48.2685C43.053 48.2045 43.208 48.1098 43.3382 47.9844C43.4684 47.8565 43.569 47.6979 43.6401 47.5085L44.4497 47.7358C44.3645 48.0104 44.2213 48.2519 44.02 48.4602C43.8188 48.6662 43.5702 48.8272 43.2743 48.9432C42.9784 49.0568 42.6458 49.1136 42.2764 49.1136Z" fill="#383838"/>
</svg>
